<?xml version="1.0" encoding="UTF-8" standalone="no"?>
<!-- Created with Inkscape (http://www.inkscape.org/) -->

<svg
   xmlns:dc="http://purl.org/dc/elements/1.1/"
   xmlns:cc="http://creativecommons.org/ns#"
   xmlns:rdf="http://www.w3.org/1999/02/22-rdf-syntax-ns#"
   xmlns:svg="http://www.w3.org/2000/svg"
   xmlns="http://www.w3.org/2000/svg"
   version="1.1"
   width="744.09448"
   height="1052.3622"
   id="svg2">
  <defs
     id="defs4" />
  <metadata
     id="metadata7">
    <rdf:RDF>
      <cc:Work
         rdf:about="">
        <dc:format>image/svg+xml</dc:format>
        <dc:type
           rdf:resource="http://purl.org/dc/dcmitype/StillImage" />
        <dc:title></dc:title>
      </cc:Work>
    </rdf:RDF>
  </metadata>
  <g
     id="layer1">
    <path
       d="m 663.16591,140.70959 c 6.41415,-15.39398 -1.28283,-18.60105 -16.6768,-24.37378 -15.39398,-5.77273 0.64141,-12.82832 0.64141,-12.82832 0,0 17.31822,-7.055557 2.56566,-27.580849 -14.75256,-20.525291 -23.09095,-17.959632 -23.09095,-17.959632 0,0 -5.77273,-11.545464 -14.75256,-9.62122 -8.9798,1.924244 -3.84849,-8.338391 -3.84849,-8.338391 0,0 -3.48012,-11.0883 -17.95963,-3.84851 -8.9798,4.489925 3.69141,-24.615959 -25.65661,-7.05556 -12.30753,7.3642 -19.95335,-11.748651 -26.93944,5.772731 -1.50107,3.764737 -18.60104,5.131339 -18.60104,5.131339 0,0 -8.97981,0.641415 -10.26264,9.62122 -1.28283,8.979805 -47.46473,36.56068 -77.61126,80.818332 0,0 -1.28283,-33.995017 -10.26264,-33.995017 -8.97982,0 -16.6768,46.181897 -16.6768,46.181897 l -22.44953,5.13132 c 0,0 -7.69698,4.48992 1.92424,11.54549 9.62124,7.05556 1.92424,8.33839 1.92424,8.33839 l -7.05556,-0.64142 -8.9798,-22.44953 c 0,0 -8.33842,-12.18688 -10.26266,7.05558 -1.92424,19.24244 -9.62122,-11.54549 -9.62122,-11.54549 0,0 -21.71534,-26.06514 -19.24246,27.58086 0.56183,12.18811 -14.69952,10.18307 -14.69952,10.18307 0,0 -10.31568,2.00383 13.41669,16.11495 23.73236,14.11114 -3.20707,9.62124 0,15.39397 3.20707,5.77274 14.0846,7.0423 14.0846,7.0423 l -8.9798,12.82832 -13.44321,-21.15345 c 0,0 -6.64564,-6.87711 -12.41837,7.87542 -5.77275,14.75256 -11.95541,-48.926 -22.21805,-5.95117 -10.26265,42.97482 -5.77273,-18.60105 -14.11114,-17.31822 -8.33839,1.28283 -6.41415,64.78294 -6.41415,64.78294 0,0 0.64142,13.46973 -5.77273,17.31822 -6.41417,3.84849 -17.95963,11.54546 -17.31822,17.95963 0.64142,6.41415 32.71217,-0.64141 35.91924,3.84849 3.2071,4.4899 -10.90405,24.37378 -10.90405,24.37378 0,0 -1.92424,7.69698 0.64142,9.62122 2.56566,1.92427 -6.41415,20.52529 -3.20707,37.84351 3.20707,17.31822 -1.73254,34.41821 3.39877,39.54953 5.13132,5.13132 5.58103,8.55661 9.42952,8.55661 3.84851,0 9.62124,8.97983 9.62124,8.97983 0,0 -26.93944,26.29803 -28.86368,33.995 -1.92424,7.697 2.56566,24.37378 -0.64142,31.42936 -3.20709,7.05557 -10.90407,19.24244 -10.90407,19.24244 l -14.11114,-3.84848 c 0,0 -10.90405,-2.56566 -1.28283,13.46973 9.62124,16.03539 5.77275,10.90405 5.77275,10.90405 0,0 -29.4388,0.20487 -10.03117,14.73929 8.17022,6.11868 -8.86046,7.53182 -5.96443,18.20017 2.07258,7.63498 -7.23762,4.4447 -6.2755,15.02804 1.92428,21.16671 0.46297,21.30535 0.46297,21.30535 0,0 -0.64141,32.07077 3.20709,35.91926 3.84848,3.84849 3.84848,13.46973 3.84848,13.46973 0,0 -9.19804,17.34474 -2.14247,20.55181 7.05557,3.20708 -11.54549,8.97981 -11.54549,12.18688 0,3.20708 5.99098,10.87755 5.99098,10.87755 l -7.05558,7.05556 -3.20708,18.60105 c 0,0 -3.20707,14.11112 -8.33839,19.88388 -5.13132,5.77273 -12.1869,3.20707 -12.1869,3.20707 l -1.92424,12.18688 -12.8283,7.697 -7.69699,-1.92425 -7.05557,8.3384 c 0,0 -5.17109,9.62121 -14.79234,5.77273 -9.62122,-3.84849 -10.86426,-8.97981 -10.86426,-8.97981 l -11.54549,5.13132 c 0,0 -25.015195,-10.26264 -26.298024,-18.60105 -1.28283,-8.33839 -5.131317,-11.54546 -12.186879,-23.09095 -7.055583,-11.54546 2.565659,-8.9798 -0.641414,-17.95963 -3.207096,-8.97981 -3.848511,-19.88388 -5.13134,-31.42934 -1.282829,-11.54549 -4.489903,-53.23746 1.282829,-60.29305 5.772755,-7.05556 4.489925,-25.65661 4.489925,-25.65661 0,0 2.565659,0 0.641415,-26.93943 -1.924244,-26.93944 5.131317,-21.80812 5.131317,-21.80812 0,0 9.62122,-25.65661 4.489903,-33.99503 -5.131317,-8.33839 10.904068,-36.56065 -0.641415,-39.12631 C 76.912323,468.47281 9.5637166,590.98312 6.3566208,716.70053 3.1495476,842.41791 91.66486,880.90284 91.66486,880.90284 c 0,0 58.23406,26.93471 101.98504,11.54546 0,0 4.83954,5.91984 3.77976,17.80832 -1.12121,12.57769 5.84146,22.60085 5.84146,22.60085 0,0 -26.78711,4.08853 -19.43416,68.87623 0.57367,5.0546 8.53011,5.528 8.53011,5.528 0,0 -6.02313,11.2106 -4.28802,16.1493 2.75351,7.8375 9.37747,5.8903 8.77793,8.2244 -1.12945,4.397 1.28283,21.1667 1.28283,21.1667 l 21.16671,-19.8839 c 0,0 29.90005,-2.6642 42.97483,2.5657 6.41414,2.5657 10.90405,-3.8485 10.90405,-3.8485 0,0 7.17085,5.7928 12.1869,20.5253 2.68752,7.8934 10.26263,-25.0152 10.26263,-25.0152 0,0 9.59072,-1.2828 36.56068,-1.2828 9.62122,0 7.05556,-7.0556 7.05556,-7.0556 0,0 9.85597,0.01 25.0152,11.5455 4.02472,3.0626 3.22294,-11.2089 -3.71631,-21.7561 -6.93928,-10.54726 -19.37464,-15.44599 -19.37464,-15.44599 0,0 -6.49029,-8.40462 -13.46971,-9.62124 -20.59765,-3.59048 -42.97483,-30.14651 -42.97483,-30.14651 0,0 29.5051,-8.33839 34.63642,-23.73236 5.13134,-15.39398 12.82831,-10.26264 14.75256,-21.80813 1.92424,-11.54546 14.11114,-27.58085 8.33839,-39.12633 -2.88637,-5.77274 1.92424,-7.85734 4.24939,-11.70583 2.32512,-3.84849 0.88195,-8.81947 0.88195,-8.81947 0,0 17.95961,-12.18687 22.44953,-32.07075 4.4899,-19.88388 0,-30.78793 0,-30.78793 0,0 21.16669,-21.80812 19.88386,-37.20209 -0.64142,-7.697 16.938,-0.6934 29.33291,-4.23489 15.978,-4.56526 24.54598,-12.44192 24.54598,-12.44192 4.51055,25.0485 40.78693,43.46671 44.89908,55.80315 l 5.77273,17.31822 c 0,0 -29.55607,57.45103 1.92424,122.51031 9.62124,19.88387 17.31822,12.82831 17.31822,12.82831 0,0 1.28283,33.995 15.39395,41.05056 14.11115,7.05559 53.32272,27.49159 72.47995,20.52529 7.05556,-2.56565 9.62122,7.697 9.62122,7.697 0,0 7.05558,-5.1313 7.697,-11.54548 0.64141,-6.41415 9.62121,5.77278 24.37377,5.13128 14.75254,-0.6414 22.44954,-17.95958 22.44954,-17.95958 0,0 9.11658,-7.94579 27.58085,8.97981 7.69698,7.05557 -1.28283,-19.88388 -1.28283,-19.88388 l 3.84849,-5.13132 c 0,0 15.3485,-3.226 30.78793,3.20708 7.697,3.20707 -2.56566,-19.24246 -14.75254,-23.09095 -12.1869,-3.84849 -22.44954,0 -22.44954,0 0,0 1.28283,-9.62124 -19.88387,-7.05556 -21.16671,2.56566 -4.4899,-9.62125 -21.80812,-3.2071 -17.31822,6.41417 3.84848,-12.18688 -37.2021,-10.26263 -41.05058,1.92424 -16.03536,-0.64142 -11.54546,-7.05557 4.4899,-6.41416 18.60105,-26.93943 18.60105,-50.67182 0,-23.73236 -4.48993,-33.35358 -4.48993,-33.35358 0,0 5.77276,-3.84849 0,-10.90408 -5.77273,-7.05556 -5.77273,-17.31819 -6.41415,-23.73236 -0.64141,-6.41415 10.90408,-21.80812 8.33839,-37.20207 -2.56565,-15.39398 -12.18687,-24.37378 -12.18687,-24.37378 0,0 6.41414,-16.67681 5.13131,-39.76776 -1.28283,-23.09095 -16.03539,-55.80314 -16.03539,-55.80314 0,0 2.56569,-7.69697 -7.69697,-16.03537 -10.26264,-8.33841 -16.6768,-42.97482 -21.80812,-49.38897 -5.13132,-6.41417 -3.84849,-13.46973 -3.84849,-13.46973 l -5.77273,-5.13132 c 0,0 -3.41884,-21.80503 -10.26266,-32.07077 -5.13132,-7.69698 14.75519,-35.53226 -10.26263,-93.00522 -1.63922,-3.76575 9.7189,10.11918 16.03536,-19.88388 2.56568,-12.18687 0.64144,16.03539 32.07078,5.77274 31.42936,-10.26264 22.44954,-2.56566 32.07076,-7.69698 9.62124,-5.13132 62.21729,-45.54048 62.21729,-45.54048 l 39.12633,-1.28283 c 0,0 16.87939,-18.30398 -0.64141,-21.80812 -6.41417,-1.28283 17.31822,-18.60105 17.31822,-18.60105 0,0 12.1434,-14.82098 7.05556,-21.16671 -8.34906,-10.41323 -28.22227,16.67681 -32.07078,12.1869 -3.84849,-4.4899 17.31822,-24.37378 10.90407,-32.07078 -6.41414,-7.69697 -44.25765,21.16671 -44.25765,21.16671 0,0 9.62122,-28.86368 -1.92425,-30.78792 -11.54548,-1.92425 -17.31822,18.60104 -17.31822,18.60104 0,0 -12.96819,17.08962 -11.54546,35.91925 0.86545,11.45401 -41.05058,2.56568 -41.05058,2.56568 0,0 -4.4899,-16.03539 -8.33842,-17.95964 -3.84848,-1.92424 1.28288,-10.6063 -9.62122,-18.60104 -2.58637,-1.89631 -0.64141,-8.33839 -0.64141,-8.33839 l -8.33839,-1.92425 c 0,0 -33.76903,-46.84168 -10.90407,-98.13655 0,0 25.64501,31.80647 33.35361,32.289 17.00714,1.06461 35.91924,-8.97982 35.91924,-8.97982 0,0 2.94906,-7.9152 -7.05556,-11.12228 -6.28857,-2.01585 8.33839,-14.11114 8.33839,-14.11114 0,0 10.54934,2.09264 16.03539,-5.13132 1.33587,-1.75906 8.9798,5.13132 8.9798,5.13132 0,0 12.1869,-5.77273 7.05559,-16.03539 -5.13134,-10.26264 14.75255,-7.69698 -1.92425,-30.14651 z"
       id="path3050"
       style="fill:#000000;fill-opacity:1;stroke:none" />
  </g>
</svg>
